HIERARCHY
ROOT root
{
  OFFSET 0 93.2929 0
  CHANNELS 6 Xposition Yposition Zposition Zrotation Xrotation Yrotation
  JOINT torso_1
  {
    OFFSET 0 5.07867 -1.15138
    CHANNELS 6 Xposition Yposition Zposition Zrotation Xrotation Yrotation
    JOINT torso_2
    {
      OFFSET 0 5.61661 1.07143
      CHANNELS 6 Xposition Yposition Zposition Zrotation Xrotation Yrotation
      JOINT torso_3
      {
        OFFSET -1.02604e-17 5.98978 0.11501
        CHANNELS 6 Xposition Yposition Zposition Zrotation Xrotation Yrotation
        JOINT torso_4
        {
          OFFSET -1.10457e-17 6.50583 -0.443523
          CHANNELS 6 Xposition Yposition Zposition Zrotation Xrotation Yrotation
          JOINT torso_5
          {
            OFFSET -1.97295e-17 7.60548 -1.50593
            CHANNELS 6 Xposition Yposition Zposition Zrotation Xrotation Yrotation
            JOINT torso_6
            {
              OFFSET -2.53307e-17 9.49737 -0.914492
              CHANNELS 6 Xposition Yposition Zposition Zrotation Xrotation Yrotation
              JOINT torso_7
              {
                OFFSET -2.90401e-17 10.5513 1.57691
                CHANNELS 6 Xposition Yposition Zposition Zrotation Xrotation Yrotation
                JOINT neck_1
                {
                  OFFSET -1.29193e-17 4.78644 0.715339
                  CHANNELS 6 Xposition Yposition Zposition Zrotation Xrotation Yrotation
                  JOINT neck_2
                  {
                    OFFSET -1.8116e-17 4.82109 0.421791
                    CHANNELS 6 Xposition Yposition Zposition Zrotation Xrotation Yrotation
                    JOINT head
                    {
                      OFFSET -2.00958e-17 4.83041 0.765062
                      CHANNELS 6 Xposition Yposition Zposition Zrotation Xrotation Yrotation
                      End Site
                      {
                        OFFSET 0 0.1 0
                      }
                    }
                  }
                }
                JOINT l_shoulder
                {
                  OFFSET 1.23299 -7.60731 7.53374
                  CHANNELS 6 Xposition Yposition Zposition Zrotation Xrotation Yrotation
                  JOINT l_up_arm
                  {
                    OFFSET 12.9547 3.2495 -3.26872
                    CHANNELS 6 Xposition Yposition Zposition Zrotation Xrotation Yrotation
                    JOINT l_low_arm
                    {
                      OFFSET 29.2081 0.0598081 0.137039
                      CHANNELS 6 Xposition Yposition Zposition Zrotation Xrotation Yrotation
                      JOINT l_hand
                      {
                        OFFSET 24.234 0.0496219 0.113701
                        CHANNELS 6 Xposition Yposition Zposition Zrotation Xrotation Yrotation
                        End Site
                        {
                          OFFSET 0.1 0 0
                        }
                      }
                    }
                  }
                }
                JOINT r_shoulder
                {
                  OFFSET -1.23299 -7.60729 7.53365
                  CHANNELS 6 Xposition Yposition Zposition Zrotation Xrotation Yrotation
                  JOINT r_up_arm
                  {
                    OFFSET -12.9547 3.2495 -3.26872
                    CHANNELS 6 Xposition Yposition Zposition Zrotation Xrotation Yrotation
                    JOINT r_low_arm
                    {
                      OFFSET -29.2081 0.0598081 0.137039
                      CHANNELS 6 Xposition Yposition Zposition Zrotation Xrotation Yrotation
                      JOINT r_hand
                      {
                        OFFSET -24.234 0.0496218 0.113702
                        CHANNELS 6 Xposition Yposition Zposition Zrotation Xrotation Yrotation
                        End Site
                        {
                          OFFSET -0.1 0 0
                        }
                      }
                    }
                  }
                }
              }
            }
          }
        }
      }
    }
  }
  JOINT l_up_leg
  {
    OFFSET 9.23673 -4.20556 2.0327
    CHANNELS 6 Xposition Yposition Zposition Zrotation Xrotation Yrotation
    JOINT l_low_leg
    {
      OFFSET -0.852353 -38.7721 -0.655187
      CHANNELS 6 Xposition Yposition Zposition Zrotation Xrotation Yrotation
      JOINT l_foot
      {
        OFFSET -2.32622 -40.4017 -6.04875
        CHANNELS 6 Xposition Yposition Zposition Zrotation Xrotation Yrotation
        JOINT l_toes
        {
          OFFSET 0.779096 -9.8844 12.4959
          CHANNELS 6 Xposition Yposition Zposition Zrotation Xrotation Yrotation
          End Site
          {
            OFFSET 0 0 0.1
          }
        }
      }
    }
  }
  JOINT r_up_leg
  {
    OFFSET -9.23673 -4.20556 2.0327
    CHANNELS 6 Xposition Yposition Zposition Zrotation Xrotation Yrotation
    JOINT r_low_leg
    {
      OFFSET 0.852353 -38.7721 -0.655187
      CHANNELS 6 Xposition Yposition Zposition Zrotation Xrotation Yrotation
      JOINT r_foot
      {
        OFFSET 2.32622 -40.4017 -6.04875
        CHANNELS 6 Xposition Yposition Zposition Zrotation Xrotation Yrotation
        JOINT r_toes
        {
          OFFSET -0.779096 -9.8844 12.4959
          CHANNELS 6 Xposition Yposition Zposition Zrotation Xrotation Yrotation
          End Site
          {
            OFFSET 0 0 0.1
          }
        }
      }
    }
  }
}
MOTION
Frames: 8
Frame Time: 0.016667
-18.902 92.3146 56.0712 -1.16144 -0.345561 13.717 0 5.07867 -1.15138 -0.72424 1.18674 0.314111 0 5.61661 1.07143 -0.502569 1.46592 0.21266 -1.02604e-17 5.98978 0.11501 -0.346965 2.23046 0.306392 -1.10457e-17 6.50583 -0.443523 -0.199525 3.15453 0.3352 -1.97295e-17 7.60548 -1.50593 0.0509043 3.16786 0.320867 -2.53307e-17 9.49737 -0.914492 0.415535 3.45162 0.0340903 -2.90401e-17 10.5513 1.57691 0.0192232 0.72803 0.0193736 -1.29193e-17 4.78644 0.715339 0.476058 3.29402 0.485445 -1.8116e-17 4.82109 0.421791 0.51617 -2.83167 0.129608 -2.00958e-17 4.83041 0.765062 -1.06638 -2.9541 2.20286 1.23299 -7.60731 7.53374 -2.44882 2.09469 -1.90979 12.9547 3.2495 -3.26872 -76.5663 18.5494 -7.74373 29.2081 0.0598081 0.137039 2.60048 -0.274193 -12.6274 24.234 0.0496219 0.113701 0.630193 -26.6182 -4.09237 -1.23299 -7.60729 7.53365 3.84008 3.24236 2.13687 -12.9547 3.2495 -3.26872 77.3827 18.323 5.69001 -29.2081 0.0598081 0.137039 -2.20893 -0.195315 10.7022 -24.234 0.0496218 0.113702 2.05853 -25.9833 4.60402 9.23673 -4.20556 2.0327 4.66311 -3.69516 -15.4656 -0.852353 -38.7721 -0.655187 -0.446909 1.66884 -0.0226213 -2.32622 -40.4017 -6.04875 -0.500293 -3.6345 15.4795 0.779096 -9.8844 12.4959 2.48481e-17 -7.95139e-16 1.2424e-17 -9.23673 -4.20556 2.0327 -7.84806 -0.237595 7.25875 0.852353 -38.7721 -0.655187 0.475022 1.77387 0.0236103 2.32622 -40.4017 -6.04875 5.6679 -1.84341 -15.8374 -0.779096 -9.8844 12.4959 -5.96354e-16 -5.59082e-16 -1.27471e-14 
-18.4513 92.2734 55.7686 -1.21862 -0.17716 13.4882 0 5.07867 -1.15138 -0.798172 1.32201 0.286578 0 5.61661 1.07143 -0.551971 1.55089 0.178362 -1.02604e-17 5.98978 0.11501 -0.375355 2.26012 0.275059 -1.10457e-17 6.50583 -0.443523 -0.20664 3.09559 0.304881 -1.97295e-17 7.60548 -1.50593 0.0601053 3.05716 0.2896 -2.53307e-17 9.49737 -0.914492 0.435009 3.30581 -0.00710915 -2.90401e-17 10.5513 1.57691 0.0193482 0.738602 0.0219435 -1.29193e-17 4.78644 0.715339 0.515246 3.13658 0.581147 -1.8116e-17 4.82109 0.421791 0.627248 -2.92042 0.176336 -2.00958e-17 4.83041 0.765062 -0.992315 -3.04294 2.27512 1.23299 -7.60731 7.53374 -2.31114 2.17222 -1.93334 12.9547 3.2495 -3.26872 -76.409 18.901 -8.16446 29.2081 0.0598081 0.137039 2.64965 -0.285051 -12.8699 24.234 0.0496219 0.113701 0.63843 -26.6324 -4.08797 -1.23299 -7.60729 7.53365 3.72272 3.34331 2.21143 -12.9547 3.2495 -3.26872 77.5004 18.383 5.86 -29.2081 0.0598081 0.137039 -2.24534 -0.202061 10.8806 -24.234 0.0496218 0.113702 1.92565 -25.5755 4.48845 9.23673 -4.20556 2.0327 4.37198 -4.03053 -15.4378 -0.852353 -38.7721 -0.655187 -0.482244 1.80085 -0.0238555 -2.32622 -40.4017 -6.04875 -0.12861 -3.76982 15.4528 0.779096 -9.8844 12.4959 2.48481e-17 -7.95139e-16 1.2424e-17 -9.23673 -4.20556 2.0327 -8.26885 -1.11517 7.69602 0.852353 -38.7721 -0.655187 0.713838 2.66601 0.0299302 2.32622 -40.4017 -6.04875 6.06023 -1.91105 -15.8695 -0.779096 -9.8844 12.4959 -5.96354e-16 -5.59082e-16 -1.27471e-14 
-17.9929 92.2329 55.465 -1.20665 -0.0199225 13.2187 0 5.07867 -1.15138 -0.891007 1.48 0.265123 0 5.61661 1.07143 -0.618056 1.65194 0.147122 -1.02604e-17 5.98978 0.11501 -0.417314 2.29988 0.246709 -1.10457e-17 6.50583 -0.443523 -0.224514 3.0375 0.277346 -1.97295e-17 7.60548 -1.50593 0.0625625 2.93999 0.262676 -2.53307e-17 9.49737 -0.914492 0.452529 3.14945 -0.0437871 -2.90401e-17 10.5513 1.57691 0.019008 0.749639 0.0244734 -1.29193e-17 4.78644 0.715339 0.552729 2.9608 0.691445 -1.8116e-17 4.82109 0.421791 0.733931 -2.99601 0.22891 -2.00958e-17 4.83041 0.765062 -0.917875 -3.11522 2.35483 1.23299 -7.60731 7.53374 -2.15939 2.26532 -1.97697 12.9547 3.2495 -3.26872 -76.2387 19.1864 -8.65924 29.2081 0.0598081 0.137039 2.67537 -0.290817 -12.9968 24.234 0.0496219 0.113701 0.667663 -26.4541 -4.08832 -1.23299 -7.60729 7.53365 3.6036 3.45885 2.29444 -12.9547 3.2495 -3.26872 77.5924 18.4119 6.08674 -29.2081 0.0598081 0.137039 -2.26058 -0.204919 10.9553 -24.234 0.0496218 0.113702 1.81278 -25.1676 4.4286 9.23673 -4.20556 2.0327 4.01375 -4.30893 -15.3134 -0.852353 -38.7721 -0.655187 -0.501944 1.87444 -0.0245082 -2.32622 -40.4017 -6.04875 0.222332 -3.83473 15.4243 0.779096 -9.8844 12.4959 2.48481e-17 -7.95139e-16 1.2424e-17 -9.23673 -4.20556 2.0327 -8.76378 -2.10961 8.32348 0.852353 -38.7721 -0.655187 1.01231 3.78046 0.0325977 2.32622 -40.4017 -6.04875 6.43474 -1.99931 -15.9058 -0.779096 -9.8844 12.4959 -6.4635e-16 -5.5752e-16 -1.27439e-14 
-17.5189 92.1966 55.1665 -1.09918 0.10879 12.9555 0 5.07867 -1.15138 -1.00263 1.65083 0.245338 0 5.61661 1.07143 -0.700841 1.76479 0.114692 -1.02604e-17 5.98978 0.11501 -0.473585 2.35321 0.216704 -1.10457e-17 6.50583 -0.443523 -0.254469 2.9966 0.247806 -1.97295e-17 7.60548 -1.50593 0.0548237 2.84035 0.23552 -2.53307e-17 9.49737 -0.914492 0.462413 3.01125 -0.0789673 -2.90401e-17 10.5513 1.57691 0.0173979 0.759005 0.0263083 -1.29193e-17 4.78644 0.715339 0.579661 2.80347 0.793869 -1.8116e-17 4.82109 0.421791 0.813222 -3.07735 0.275951 -2.00958e-17 4.83041 0.765062 -0.828656 -3.18544 2.43104 1.23299 -7.60731 7.53374 -1.99912 2.35484 -2.03489 12.9547 3.2495 -3.26872 -76.0591 19.3765 -9.24079 29.2081 0.0598081 0.137039 2.67862 -0.291549 -13.0128 24.234 0.0496219 0.113701 0.729351 -26.0487 -4.08376 -1.23299 -7.60729 7.53365 3.47909 3.56209 2.38135 -12.9547 3.2495 -3.26872 77.6686 18.4146 6.35082 -29.2081 0.0598081 0.137039 -2.25757 -0.204354 10.9405 -24.234 0.0496218 0.113702 1.76518 -24.9271 4.48234 9.23673 -4.20556 2.0327 3.55907 -4.48535 -15.2047 -0.852353 -38.7721 -0.655187 -0.491712 1.83622 -0.0241723 -2.32622 -40.4017 -6.04875 0.508267 -3.79652 15.3969 0.779096 -9.8844 12.4959 2.48481e-17 -7.95139e-16 1.2424e-17 -9.23673 -4.20556 2.0327 -9.34415 -3.16969 9.12395 0.852353 -38.7721 -0.655187 1.36239 5.08566 0.0283171 2.32622 -40.4017 -6.04875 6.77683 -2.06996 -15.9509 -0.779096 -9.8844 12.4959 -9.77658e-16 -5.47166e-16 -1.27232e-14 
-17.0295 92.1567 54.8335 -0.923471 0.208667 12.7163 0 5.07867 -1.15138 -1.10289 1.8514 0.219044 0 5.61661 1.07143 -0.774858 1.90634 0.0767256 -1.02604e-17 5.98978 0.11501 -0.525109 2.43872 0.180507 -1.10457e-17 6.50583 -0.443523 -0.283577 2.99485 0.211839 -1.97295e-17 7.60548 -1.50593 0.0419943 2.78132 0.201821 -2.53307e-17 9.49737 -0.914492 0.46098 2.91755 -0.117681 -2.90401e-17 10.5513 1.57691 0.0143004 0.764702 0.026835 -1.29193e-17 4.78644 0.715339 0.59489 2.69037 0.920169 -1.8116e-17 4.82109 0.421791 0.844607 -3.20833 0.332062 -2.00958e-17 4.83041 0.765062 -0.808046 -3.30906 2.45399 1.23299 -7.60731 7.53374 -1.86069 2.43077 -2.12059 12.9547 3.2495 -3.26872 -75.8611 19.4635 -9.9631 29.2081 0.0598081 0.137039 2.66821 -0.289208 -12.9614 24.234 0.0496219 0.113701 0.831235 -25.5204 -4.08613 -1.23299 -7.60729 7.53365 3.33692 3.63139 2.47994 -12.9547 3.2495 -3.26872 77.7058 18.3573 6.68732 -29.2081 0.0598081 0.137039 -2.25216 -0.203338 10.914 -24.234 0.0496218 0.113702 1.7581 -24.9313 4.66883 9.23673 -4.20556 2.0327 3.04277 -4.5999 -15.3281 -0.852353 -38.7721 -0.655187 -0.456743 1.70558 -0.0229729 -2.32622 -40.4017 -6.04875 0.686614 -3.70387 15.3758 0.779096 -9.8844 12.4959 2.48481e-17 -7.95139e-16 1.2424e-17 -9.23673 -4.20556 2.0327 -9.97223 -4.31892 10.0088 0.852353 -38.7721 -0.655187 1.76251 6.5732 0.0136386 2.32622 -40.4017 -6.04875 7.06643 -2.07767 -16.0047 -0.779096 -9.8844 12.4959 -6.78881e-16 -5.56503e-16 -1.27419e-14 
-16.5561 92.1057 54.5045 -0.7067 0.306574 12.5634 0 5.07867 -1.15138 -1.1971 2.10388 0.182932 0 5.61661 1.07143 -0.843544 2.08263 0.0290833 -1.02604e-17 5.98978 0.11501 -0.573638 2.54037 0.134325 -1.10457e-17 6.50583 -0.443523 -0.311746 2.98017 0.165295 -1.97295e-17 7.60548 -1.50593 0.0253555 2.69137 0.157153 -2.53307e-17 9.49737 -0.914492 0.44957 2.78131 -0.164884 -2.90401e-17 10.5513 1.57691 0.00982938 0.773926 0.0265407 -1.29193e-17 4.78644 0.715339 0.600186 2.64771 1.03258 -1.8116e-17 4.82109 0.421791 0.830474 -3.29645 0.379812 -2.00958e-17 4.83041 0.765062 -0.82257 -3.44219 2.43213 1.23299 -7.60731 7.53374 -1.71062 2.53182 -2.23785 12.9547 3.2495 -3.26872 -75.642 19.53 -10.7204 29.2081 0.0598081 0.137039 2.64792 -0.284666 -12.8613 24.234 0.0496219 0.113701 0.941432 -24.9484 -4.07242 -1.23299 -7.60729 7.53365 3.12721 3.70184 2.57772 -12.9547 3.2495 -3.26872 77.7754 18.3437 6.95923 -29.2081 0.0598081 0.137039 -2.25555 -0.203975 10.9306 -24.234 0.0496218 0.113702 1.79897 -25.1627 4.94052 9.23673 -4.20556 2.0327 2.48678 -4.75417 -15.5317 -0.852353 -38.7721 -0.655187 -0.440092 1.64337 -0.0223738 -2.32622 -40.4017 -6.04875 0.874176 -3.62267 15.3528 0.779096 -9.8844 12.4959 2.48481e-17 -7.95139e-16 1.2424e-17 -9.23673 -4.20556 2.0327 -10.5832 -5.45853 10.9373 0.852353 -38.7721 -0.655187 2.17305 8.09273 -0.0122409 2.32622 -40.4017 -6.04875 7.21779 -2.06142 -16.0641 -0.779096 -9.8844 12.4959 -1.09392e-15 -5.43533e-16 -1.27237e-14 
-16.1345 92.0697 54.2173 -0.506175 0.335627 12.5312 0 5.07867 -1.15138 -1.28512 2.38034 0.139207 0 5.61661 1.07143 -0.905942 2.27405 -0.0262465 -1.02604e-17 5.98978 0.11501 -0.617373 2.64627 0.0798992 -1.10457e-17 6.50583 -0.443523 -0.336482 2.9516 0.110028 -1.97295e-17 7.60548 -1.50593 0.00870968 2.57714 0.103114 -2.53307e-17 9.49737 -0.914492 0.433481 2.61424 -0.220327 -2.90401e-17 10.5513 1.57691 0.00419634 0.785542 0.0254626 -1.29193e-17 4.78644 0.715339 0.599864 2.65302 1.1141 -1.8116e-17 4.82109 0.421791 0.797562 -3.32781 0.412619 -2.00958e-17 4.83041 0.765062 -0.825626 -3.51254 2.39443 1.23299 -7.60731 7.53374 -1.56797 2.65343 -2.38102 12.9547 3.2495 -3.26872 -75.418 19.5336 -11.4534 29.2081 0.0598081 0.137039 2.61461 -0.277293 -12.697 24.234 0.0496219 0.113701 1.10892 -24.2267 -3.98676 -1.23299 -7.60729 7.53365 2.90151 3.77481 2.66767 -12.9547 3.2495 -3.26872 77.9175 18.3327 7.11312 -29.2081 0.0598081 0.137039 -2.26805 -0.206329 10.9919 -24.234 0.0496218 0.113702 1.87405 -25.5358 5.24443 9.23673 -4.20556 2.0327 1.97828 -4.9031 -15.7297 -0.852353 -38.7721 -0.655187 -0.45182 1.68719 -0.0227977 -2.32622 -40.4017 -6.04875 1.05451 -3.51194 15.3284 0.779096 -9.8844 12.4959 2.48481e-17 -7.95139e-16 1.2424e-17 -9.23673 -4.20556 2.0327 -11.0675 -6.4146 11.8809 0.852353 -38.7721 -0.655187 2.54751 9.47091 -0.0453544 2.32622 -40.4017 -6.04875 7.24656 -1.91007 -16.1379 -0.779096 -9.8844 12.4959 -1.02645e-15 -5.45641e-16 -1.27269e-14 
-15.7828 92.0601 53.9963 -0.379982 0.281857 12.6258 0 5.07867 -1.15138 -1.35424 2.61527 0.090356 0 5.61661 1.07143 -0.951541 2.43929 -0.0850161 -1.02604e-17 5.98978 0.11501 -0.647644 2.73873 0.02143 -1.10457e-17 6.50583 -0.443523 -0.351151 2.92926 0.0505834 -1.97295e-17 7.60548 -1.50593 -0.00231674 2.4818 0.043498 -2.53307e-17 9.49737 -0.914492 0.417677 2.47286 -0.28129 -2.90401e-17 10.5513 1.57691 -0.0023602 0.794092 0.0231293 -1.29193e-17 4.78644 0.715339 0.598021 2.70683 1.15099 -1.8116e-17 4.82109 0.421791 0.770648 -3.31079 0.42536 -2.00958e-17 4.83041 0.765062 -0.819922 -3.52947 2.35448 1.23299 -7.60731 7.53374 -1.43811 2.75516 -2.52138 12.9547 3.2495 -3.26872 -75.2314 19.4197 -12.1442 29.2081 0.0598081 0.137039 2.56418 -0.26632 -12.4484 24.234 0.0496219 0.113701 1.34735 -23.2481 -3.80845 -1.23299 -7.60729 7.53365 2.69082 3.81825 2.72235 -12.9547 3.2495 -3.26872 78.137 18.3161 7.15325 -29.2081 0.0598081 0.137039 -2.28544 -0.209628 11.0772 -24.234 0.0496218 0.113702 1.97948 -25.9998 5.5558 9.23673 -4.20556 2.0327 1.59229 -5.01953 -15.8935 -0.852353 -38.7721 -0.655187 -0.486019 1.81495 -0.0239825 -2.32622 -40.4017 -6.04875 1.2089 -3.37498 15.3038 0.779096 -9.8844 12.4959 2.48481e-17 -7.95139e-16 1.2424e-17 -9.23673 -4.20556 2.0327 -11.2782 -7.07827 12.8539 0.852353 -38.7721 -0.655187 2.85282 10.5879 -0.0790241 2.32622 -40.4017 -6.04875 7.13794 -1.66972 -16.2082 -0.779096 -9.8844 12.4959 -2.47582e-16 -5.77247e-16 -1.27616e-14 
